<svg width="353" height="264" viewBox="0 0 353 264" fill="none" xmlns="http://www.w3.org/2000/svg">
<path d="M20.7531 101.593C20.7531 101.593 -39.2468 197.593 78.7532 239.593C78.7532 239.593 135.96 257.034 176.253 258.093C218.364 259.199 281.5 238.504 281.5 238.504C392.999 177.004 329.253 101.593 329.253 101.593C329.253 101.593 355.252 37.0927 302.753 12.0927C250.253 -12.9073 218.5 41.2947 218.5 41.2947C218.5 41.2947 201.747 36.7947 175.5 36.7947C149.253 36.7947 134.5 41.2947 134.5 41.2947C134.5 41.2947 92.7531 -18.9073 43.2527 17.5927C-6.24778 54.0926 20.7531 101.593 20.7531 101.593Z" fill="#62AD57" stroke="#12432C" stroke-width="11"/>
<path d="M108.5 21.9923C120.466 28.6017 129 45.9923 133.5 46.4923C138 46.9923 143 41.0559 174 40.4923C205 39.9286 219 46.4923 219 46.4923C219 46.4923 226.5 35.9923 231.5 30.9923C236.5 25.9923 241.5 22.9923 241.5 22.9923L248 18.9923L253 16.4923L259.5 14.4923C259.5 14.4923 262.5 13.4922 262 15.9922C261.5 18.4922 259 19.4922 256 20.4922C253 21.4922 245.959 24.9039 240.5 28.9923C233.686 34.0957 227.5 46.4923 227.5 46.4923C227.5 46.4923 225.5 54.9923 221 55.9923C216.5 56.9923 204 49.4923 174.5 48.9923C145 48.4923 148.575 60.2997 133.5 54.4923C120.486 49.479 120.551 36.0103 108.5 28.9923C102.296 25.3792 91.5 21.9923 91.5 21.9923C91.5 21.9923 87 16.9923 91.5 15.4923C96 13.9923 102.278 18.5557 108.5 21.9923Z" fill="#C1DF43" stroke="#C1DF43"/>
<path d="M191.5 133.504C191.5 137.646 197.358 126.504 201.5 126.504C205.642 126.504 209 127.146 209 123.004C209 118.862 205.642 115.504 201.5 115.504C197.358 115.504 191.5 129.362 191.5 133.504Z" fill="#12432C"/>
<path d="M165 133.504C165 137.646 159.142 126.504 155 126.504C150.858 126.504 147.5 127.146 147.5 123.004C147.5 118.862 150.858 115.504 155 115.504C159.142 115.504 165 129.362 165 133.504Z" fill="#12432C"/>
<circle cx="78" cy="77.0042" r="34.5" fill="#F3FADE"/>
<circle cx="274" cy="77.0042" r="34.5" fill="#F3FADE"/>
<ellipse cx="58.5" cy="144.004" rx="15" ry="8.5" fill="#C0DE4A"/>
<ellipse cx="308.5" cy="144.004" rx="15" ry="8.5" fill="#C0DE4A"/>
<circle cx="80.5" cy="77.5042" r="27" fill="#12432C"/>
<circle cx="272.5" cy="77.5042" r="27" fill="#12432C"/>
<circle cx="68.5" cy="59.5042" r="10" fill="#F3FADE"/>
<circle cx="262.5" cy="59.5042" r="10" fill="#F3FADE"/>
<circle cx="97.2349" cy="85.5859" r="5" fill="#F3FADE"/>
<circle cx="288.5" cy="85.5042" r="5" fill="#F3FADE"/>
<path d="M206.5 186.894C206.5 188.551 193.292 197.504 177 197.504C160.708 197.504 147.5 188.551 147.5 186.894C147.5 185.237 160.708 189.394 177 189.394C193.292 189.394 206.5 185.237 206.5 186.894Z" fill="#30915B"/>
<path d="M191 241.504C350.2 244.304 334.499 117.004 323.999 104.504C313.499 92.0042 397 178.504 277.5 236.504C277.5 236.504 248.5 246.342 243 247.504C237.5 248.666 206 253.504 195.5 253.504C185 253.504 31.7994 238.704 191 241.504Z" fill="#30915B"/>
<path d="M96.8465 133.504C73.8465 138.004 81.8465 152.004 81.8465 152.004" stroke="#12432C" stroke-width="10" stroke-linecap="round"/>
<path d="M261.347 134.004C284.347 138.504 276.347 152.504 276.347 152.504" stroke="#12432C" stroke-width="10" stroke-linecap="round"/>
<path d="M86.3467 140.504C117.847 161.837 199.247 191.704 272.847 140.504" stroke="#12432C" stroke-width="10"/>
</svg>
