<svg width="353" height="280" viewBox="0 0 353 280" fill="none" xmlns="http://www.w3.org/2000/svg">
<path d="M20.7531 117.338C20.7531 117.338 -39.2468 213.338 78.7532 255.338C78.7532 255.338 135.96 272.78 176.253 273.838C218.364 274.945 281.5 254.25 281.5 254.25C392.999 192.75 329.253 117.338 329.253 117.338C329.253 117.338 355.252 52.8385 302.753 27.8385C250.253 2.83847 218.5 57.0405 218.5 57.0405C218.5 57.0405 201.747 52.5405 175.5 52.5405C149.253 52.5405 134.5 57.0405 134.5 57.0405C134.5 57.0405 92.7531 -3.16149 43.2527 33.3385C-6.24778 69.8384 20.7531 117.338 20.7531 117.338Z" fill="#62AD57" stroke="#12432C" stroke-width="11"/>
<path d="M108.5 37.7381C120.466 44.3475 129 61.7381 133.5 62.2381C138 62.7381 143 56.8017 174 56.2381C205 55.6744 219 62.2381 219 62.2381C219 62.2381 226.5 51.7381 231.5 46.7381C236.5 41.7381 241.5 38.7381 241.5 38.7381L248 34.7381L253 32.2381L259.5 30.2381C259.5 30.2381 262.5 29.238 262 31.738C261.5 34.238 259 35.238 256 36.238C253 37.238 245.959 40.6497 240.5 44.7381C233.686 49.8415 227.5 62.2381 227.5 62.2381C227.5 62.2381 225.5 70.7381 221 71.7381C216.5 72.7381 204 65.2381 174.5 64.7381C145 64.2381 148.575 76.0455 133.5 70.2381C120.486 65.2248 120.551 51.7561 108.5 44.7381C102.296 41.125 91.5 37.7381 91.5 37.7381C91.5 37.7381 87 32.7381 91.5 31.2381C96 29.7381 102.278 34.3014 108.5 37.7381Z" fill="#C1DF43" stroke="#C1DF43"/>
<path d="M191.5 149.25C191.5 153.392 197.358 142.25 201.5 142.25C205.642 142.25 209 142.892 209 138.75C209 134.608 205.642 131.25 201.5 131.25C197.358 131.25 191.5 145.108 191.5 149.25Z" fill="#12432C"/>
<path d="M165 149.25C165 153.392 159.142 142.25 155 142.25C150.858 142.25 147.5 142.892 147.5 138.75C147.5 134.608 150.858 131.25 155 131.25C159.142 131.25 165 145.108 165 149.25Z" fill="#12432C"/>
<circle cx="78" cy="92.7499" r="34.5" fill="#F3FADE"/>
<circle cx="274" cy="92.7499" r="34.5" fill="#F3FADE"/>
<ellipse cx="58.5" cy="159.75" rx="15" ry="8.5" fill="#C0DE4A"/>
<ellipse cx="308.5" cy="159.75" rx="15" ry="8.5" fill="#C0DE4A"/>
<circle cx="80.5" cy="93.2499" r="27" fill="#12432C"/>
<circle cx="272.5" cy="93.2499" r="27" fill="#12432C"/>
<circle cx="68.5" cy="75.2499" r="10" fill="#F3FADE"/>
<circle cx="262.5" cy="75.2499" r="10" fill="#F3FADE"/>
<circle cx="97.2349" cy="101.332" r="5" fill="#F3FADE"/>
<circle cx="288.5" cy="101.25" r="5" fill="#F3FADE"/>
<path d="M206.5 202.64C206.5 204.297 193.292 213.25 177 213.25C160.708 213.25 147.5 204.297 147.5 202.64C147.5 200.983 160.708 205.14 177 205.14C193.292 205.14 206.5 200.983 206.5 202.64Z" fill="#30915B"/>
<path d="M191 257.25C350.2 260.05 334.499 132.75 323.999 120.25C313.499 107.75 397 194.25 277.5 252.25C277.5 252.25 248.5 262.088 243 263.25C237.5 264.412 206 269.25 195.5 269.25C185 269.25 31.7994 254.45 191 257.25Z" fill="#30915B"/>
<path d="M96.8465 149.25C73.8465 153.75 81.8465 167.75 81.8465 167.75" stroke="#12432C" stroke-width="10" stroke-linecap="round"/>
<path d="M261.347 149.75C284.347 154.25 276.347 168.25 276.347 168.25" stroke="#12432C" stroke-width="10" stroke-linecap="round"/>
<path d="M86.3467 156.25C117.847 177.583 199.247 207.45 272.847 156.25" stroke="#12432C" stroke-width="10"/>
<path d="M90.4197 25.5897C98.8749 25.9812 102.615 32.4957 103.428 35.704C103.861 37.5528 102.55 41.0548 93.8343 40.2717C93.1938 40.2142 92.5993 40.1741 92.0465 40.1494C92.6969 40.1845 96.3978 53.6557 90.9083 55.1169C82.9409 57.2376 73.8399 44.4803 73.998 40.598C70.5789 50.9083 66.5184 54.1381 61.1526 56.0957C56.86 57.6618 55.4616 46.914 55.7868 41.4259C48.3992 41.7086 39.9369 41.2401 38.714 38.3141C36.8198 33.7821 47.9822 28.2542 53.1854 26.7316C48.4701 21.8376 41.4783 19.88 44.5667 16.9436C52.404 9.49219 60.2305 13.6266 62.6153 15.9648C64.5665 7.1556 69.9322 2.75101 73.3468 0.467135C76.0785 -1.35996 82.5608 8.78695 84.7288 14.1704C85.7044 10.4183 104.241 9.92887 103.428 13.1916C102.615 16.4543 103.428 17.2699 90.4197 25.5897Z" fill="#FFC5E9"/>
<path d="M73.3468 37.3353C73.6805 36.7076 74.1156 35.9856 74.6439 35.2146M73.3468 37.3353C69.4435 37.1722 69.4453 39.4561 67.0063 40.2717C65.9785 40.6155 61.1677 41.22 55.7868 41.4259M73.3468 37.3353C73.0447 39.2547 72.4709 39.9146 73.998 40.598M90.4197 25.5897C98.8749 25.9812 102.615 32.4957 103.428 35.704C103.861 37.5528 102.55 41.0548 93.8343 40.2717C93.1938 40.2142 92.5993 40.1741 92.0465 40.1494M90.4197 25.5897C103.428 17.2699 102.615 16.4543 103.428 13.1916C104.241 9.92888 85.7044 10.4183 84.7288 14.1704M90.4197 25.5897C84.7562 25.3275 79.9925 28.8566 76.8126 32.4413M84.7288 14.1704C82.5608 8.78695 76.0785 -1.35996 73.3468 0.467135C69.9322 2.75101 64.5665 7.1556 62.6153 15.9648M84.7288 14.1704C84.2952 17.6505 82.6149 25.0351 79.363 26.7316C76.111 28.4282 76.3078 31.245 76.8126 32.4413M62.6153 15.9648C60.2305 13.6266 52.404 9.49219 44.5667 16.9436C41.4783 19.88 48.4701 21.8376 53.1854 26.7316M62.6153 15.9648C63.0761 19.678 64.8852 26.3954 68.7948 30.9978M76.8126 32.4413C75.9759 33.3846 75.2488 34.3317 74.6439 35.2146M74.6439 35.2146C72.3146 34.3857 70.3817 32.866 68.7948 30.9978M53.1854 26.7316C47.9822 28.2542 36.8198 33.7821 38.714 38.3141C39.9369 41.2401 48.3992 41.7086 55.7868 41.4259M53.1854 26.7316C56.8712 26.7481 65.1532 27.6244 68.7948 30.9978M55.7868 41.4259C55.4616 46.914 56.86 57.6618 61.1526 56.0957C66.5184 54.1381 70.5789 50.9083 73.998 40.598M73.998 40.598C74.937 41.0183 77.0722 41.5693 79.363 42.0662C85.0254 43.2945 83.1977 39.7539 92.0465 40.1494M73.998 40.598C73.8399 44.4803 82.9409 57.2376 90.9083 55.1169C96.3978 53.6557 92.6969 40.1845 92.0465 40.1494" stroke="white" stroke-width="0.5"/>
<path d="M68.1445 23.6321C69.0295 24.4266 70.6751 26.0483 71.1204 26.9857C70.4835 24.779 69.2844 21.0623 68.7949 21.1851L69.2827 20.0432C69.9316 21.0196 70.9688 22.7754 71.476 24.1874C71.0838 21.7458 70.408 18.6976 69.5952 18.0478L69.2827 17.9224C69.3888 17.9224 69.4931 17.9662 69.5952 18.0478L70.9087 18.575C71.5591 20.2063 72.8599 23.7952 72.8599 25.1003V16.4542L73.8355 17.5962V25.1003C74.3233 22.8708 75.6241 18.3139 76.9249 17.9224L77.7379 18.575C76.2484 20.6363 73.6393 25.1198 74.4774 27.3606C74.3508 26.3298 75.9774 23.8891 76.9249 22.6533V24.774C75.8951 26.786 74.3884 31.4299 75.9493 33.257C75.5157 33.8008 74.616 34.9209 74.4859 35.0515C74.3558 35.182 72.5889 34.127 71.7217 33.5833C71.2881 30.4837 69.8356 24.2846 67.4941 24.2846L68.1445 23.6321Z" fill="#12432C"/>
<path d="M67.6562 22.164C66.8435 19.8801 62.9411 24.7741 63.9167 25.4266C64.8922 26.0791 69.9328 23.1428 67.6562 22.164Z" fill="#F3E66C"/>
<path d="M67.6562 22.164C66.8435 19.8801 62.9411 24.7741 63.9167 25.4266C64.8922 26.0791 69.9328 23.1428 67.6562 22.164ZM67.6562 22.164L65.7053 23.7953" stroke="white" stroke-width="0.5" stroke-linecap="round"/>
<path d="M72.8542 14.5293C70.4874 15.0219 74.7805 19.5746 75.5592 18.6953C76.3379 17.8159 74.1344 12.4021 72.8542 14.5293Z" fill="#F3E66C"/>
<path d="M72.8542 14.5293C70.4874 15.0219 74.7805 19.5746 75.5592 18.6953C76.3379 17.8159 74.1344 12.4021 72.8542 14.5293ZM72.8542 14.5293L74.1955 16.6929" stroke="white" stroke-width="0.5" stroke-linecap="round"/>
<path d="M76.6271 15.8821C74.4898 17.015 79.8746 20.1919 80.3792 19.1301C80.8838 18.0683 77.2679 13.4818 76.6271 15.8821Z" fill="#F3E66C"/>
<path d="M76.6271 15.8821C74.4898 17.015 79.8746 20.1919 80.3792 19.1301C80.8838 18.0683 77.2679 13.4818 76.6271 15.8821ZM76.6271 15.8821L78.5147 17.5867" stroke="white" stroke-width="0.5" stroke-linecap="round"/>
<path d="M78.7558 20.8784C76.7259 19.5618 76.5962 25.8278 77.7661 25.7503C78.936 25.6728 81.1561 20.2658 78.7558 20.8784Z" fill="#F3E66C"/>
<path d="M78.7558 20.8784C76.7259 19.5618 76.5962 25.8278 77.7661 25.7503C78.936 25.6728 81.1561 20.2658 78.7558 20.8784ZM78.7558 20.8784L78.1965 23.3639" stroke="white" stroke-width="0.5" stroke-linecap="round"/>
<path d="M68.38 15.2225C66.3902 16.3501 71.5006 19.5322 71.9576 18.4727C72.4146 17.4132 68.9436 12.8265 68.38 15.2225Z" fill="#F3E66C"/>
<path d="M68.38 15.2225C66.3902 16.3501 71.5006 19.5322 71.9576 18.4727C72.4146 17.4132 68.9436 12.8265 68.38 15.2225ZM68.38 15.2225L70.181 16.9281" stroke="white" stroke-width="0.5" stroke-linecap="round"/>
<path d="M66.2815 16.7838C63.6541 16.8773 67.7192 22.1377 68.6759 21.3918C69.6327 20.6459 67.9421 14.8781 66.2815 16.7838Z" fill="#F3E66C"/>
<path d="M66.2815 16.7838C63.6541 16.8773 67.7192 22.1377 68.6759 21.3918C69.6327 20.6459 67.9421 14.8781 66.2815 16.7838ZM66.2815 16.7838L67.4562 19.1663" stroke="white" stroke-width="0.5" stroke-linecap="round"/>
</svg>
