<svg width="40" height="40" viewBox="0 0 40 40" fill="none" xmlns="http://www.w3.org/2000/svg">
<g clip-path="url(#clip0_4_10)">
<path d="M16.3604 0.539978C20.7336 0.540061 24.4598 2.0868 27.5664 5.1933C30.6731 8.29997 32.2197 12.0269 32.2197 16.4003C32.2197 19.6856 31.2905 22.6662 29.4287 25.3554L29.1914 25.6982L29.4854 25.9931L39.293 35.8388L35.7998 39.3329L25.7012 29.2343L25.3594 29.4667C22.6142 31.3314 19.6182 32.2596 16.3604 32.2597C11.9869 32.2597 8.25999 30.7131 5.15332 27.6064C2.04682 24.4998 0.500083 20.7735 0.5 16.4003C0.5 12.0269 2.04665 8.29997 5.15332 5.1933C8.25999 2.08663 11.9869 0.539978 16.3604 0.539978ZM16.3604 4.98041C13.2142 4.98041 10.5131 6.09914 8.28613 8.32611C6.05916 10.5531 4.94043 13.2542 4.94043 16.4003C4.94051 19.5464 6.05923 22.241 8.28711 24.455C10.5143 26.6683 13.2152 27.7802 16.3604 27.7802C19.5054 27.7801 22.1989 26.6673 24.4131 24.4531C26.6273 22.2388 27.7402 19.5454 27.7402 16.4003C27.7402 13.2552 26.6283 10.5543 24.415 8.32709C22.2011 6.09921 19.5064 4.98049 16.3604 4.98041Z" stroke="black"/>
</g>
<defs>
<clipPath id="clip0_4_10">
<rect width="40" height="40" fill="white"/>
</clipPath>
</defs>
</svg>
